<svg xmlns="http://www.w3.org/2000/svg" xmlns:xlink="http://www.w3.org/1999/xlink" width="500" height="500" viewBox="0 0 500 500"><defs><style>.a{clip-path:url(#b);}.b,.e{fill:none;}.b{stroke:#f82727;stroke-width:57px;}.c{fill:#f82727;}.d{stroke:none;}</style><clipPath id="b"><rect width="500" height="500"/></clipPath></defs><g id="a" class="a"><g transform="translate(-82.535 -80.089)"><g class="b" transform="translate(141.543 140.874)"><circle class="d" cx="198.344" cy="198.344" r="198.344"/><circle class="e" cx="198.344" cy="198.344" r="169.844"/></g><g transform="translate(59.753 61.737)"><path class="c" d="M9.218,0,33.7.45C38.9.545,43.209,4.372,43.32,9L53.459,431.1c.111,4.625-4.015,8.3-9.216,8.2L19.76,438.85c-5.2-.1-9.507-3.922-9.618-8.547L0,8.2C-.109,3.579,4.017-.093,9.218,0Z" transform="matrix(-0.407, 0.914, -0.914, -0.407, 461.847, 321.107)"/><path class="c" d="M11.032,0l28.82.1C45.974.126,50.96,3.687,50.99,8.057L53.462,378.4c.029,4.37-4.91,7.9-11.032,7.874l-28.82-.1c-6.122-.022-11.108-3.583-11.137-7.953L0,7.874C-.029,3.5,4.91-.022,11.032,0Z" transform="matrix(0.996, -0.087, 0.087, 0.996, 247.487, 46.011)"/><g transform="translate(106.612 254)"><path class="c" d="M9.015.014l41.666.3c5,.036,9.084,4.66,9.117,10.327l.621,108.771c.032,5.667-4,10.232-9,10.2l-41.666-.3c-5-.036-9.084-4.66-9.117-10.327L.015,10.21C-.017,4.542,4.012-.023,9.015.014Z" transform="matrix(0.996, -0.087, 0.087, 0.996, 84.364, 52.539)"/><path class="c" d="M8.883.056l41.06.522c4.93.063,8.977,5.179,9.039,11.427l1.2,119.924c.063,6.248-3.883,11.263-8.813,11.2l-41.06-.522c-4.93-.063-8.977-5.179-9.039-11.427L.071,11.256C.008,5.008,3.954-.006,8.883.056Z" transform="matrix(0.391, -0.921, 0.921, 0.391, -8, 49.495)"/><path class="c" d="M10.644.014,59.849.272C65.757.3,70.575,4.1,70.612,8.75l.7,89.271c.037,4.651-4.723,8.4-10.631,8.366l-49.205-.258C5.57,106.1.752,102.3.715,97.65L.013,8.379C-.024,3.728,4.736-.017,10.644.014Z" transform="matrix(0.996, -0.087, 0.087, 0.996, 36.235, 61.946)"/></g></g></g></g></svg>