<svg xmlns="http://www.w3.org/2000/svg" xmlns:xlink="http://www.w3.org/1999/xlink" width="500" height="500" viewBox="0 0 500 500"><defs><style>.a{clip-path:url(#b);}.b{fill:#e94e4e;}.c{fill:#e2e2e2;}</style><clipPath id="b"><rect width="500" height="500"/></clipPath></defs><g id="a" class="a"><g transform="translate(5.542 20.538)"><circle class="b" cx="129.851" cy="129.851" r="129.851" transform="translate(113.299 113.546)"/><circle class="c" cx="90.584" cy="90.584" r="90.584" transform="matrix(1, 0.017, -0.017, 1, 153.846, 151.714)"/><g transform="translate(60.458 62.462)"><path class="b" d="M6.157.124,22.186.445a6.408,6.408,0,0,1,6.3,6.136l6.638,303.041a5.791,5.791,0,0,1-6.033,5.889l-16.029-.322a6.408,6.408,0,0,1-6.3-6.136L.124,6.013A5.791,5.791,0,0,1,6.157.124Z" transform="matrix(-0.407, 0.914, -0.914, -0.407, 301.816, 209.434)"/><path class="b" d="M7.251.029,26.119.1C30.127.12,33.391,2.7,33.41,5.87l1.618,268.512c.019,3.169-3.214,5.724-7.222,5.708l-18.868-.075c-4.008-.016-7.272-2.6-7.291-5.766L.029,5.737C.01,2.569,3.243.013,7.251.029Z" transform="matrix(0.996, -0.087, 0.087, 0.996, 158.919, 2.299)"/><path class="b" d="M6.065.029l27.9.159c3.35.019,6.078,3.107,6.094,6.9l.306,72.736c.016,3.79-2.687,6.846-6.036,6.827l-27.9-.159c-3.35-.019-6.078-3.107-6.094-6.9L.029,6.856C.013,3.067,2.716.01,6.065.029Z" transform="matrix(0.996, -0.087, 0.087, 0.996, 118.991, 198.11)"/><path class="b" d="M6.065.029,33.965.2c3.35.021,6.078,3.439,6.094,7.633l.306,80.5c.016,4.194-2.687,7.578-6.036,7.556l-27.9-.176C3.08,95.7.351,92.283.335,88.089L.029,7.585C.013,3.391,2.716.008,6.065.029Z" transform="matrix(0.391, -0.921, 0.921, 0.391, 57.675, 197.864)"/><path class="b" d="M6.065.029l27.9.133A5.979,5.979,0,0,1,40.06,5.928l.306,60.817a5.839,5.839,0,0,1-6.036,5.709l-27.9-.133A5.979,5.979,0,0,1,.335,66.554L.029,5.737A5.839,5.839,0,0,1,6.065.029Z" transform="matrix(0.996, -0.087, 0.087, 0.996, 89.228, 202.25)"/></g></g></g></svg>